<svg width="362" height="383" viewBox="0 0 362 383" fill="none" xmlns="http://www.w3.org/2000/svg">
<path d="M141.007 173.617L255.209 115.429C255.895 115.079 255.945 114.118 255.3 113.699L147.806 43.8916C147.16 43.4724 146.303 43.9092 146.263 44.678L139.555 172.674C139.514 173.443 140.321 173.967 141.007 173.617Z" fill="#D23131" stroke="white" stroke-width="4"/>
<path d="M152.931 88.7364L146.177 217.597C146.137 218.366 145.28 218.803 144.634 218.384L36.414 148.105C35.7684 147.685 35.8188 146.724 36.5047 146.375L151.478 87.793C152.164 87.4435 152.971 87.9676 152.931 88.7364Z" fill="#D23131" stroke="white" stroke-width="4"/>
<path d="M210.235 294.537L325.208 235.955C325.894 235.605 325.945 234.644 325.299 234.225L217.079 163.946C216.433 163.527 215.576 163.964 215.536 164.732L208.782 293.593C208.742 294.362 209.549 294.886 210.235 294.537Z" fill="#373737" stroke="white" stroke-width="4"/>
<path d="M222.415 208.763L215.328 337.373C215.286 338.141 214.429 338.576 213.785 338.157L106.264 268.332C105.619 267.913 105.668 266.954 106.352 266.604L220.961 207.818C221.648 207.466 222.458 207.992 222.415 208.763Z" fill="#00B2CB" stroke="white" stroke-width="4"/>
<path d="M71.2348 294.537L186.208 235.955C186.894 235.605 186.945 234.644 186.299 234.225L78.0788 163.946C77.4332 163.527 76.5758 163.964 76.5355 164.732L69.7822 293.593C69.7419 294.362 70.5489 294.886 71.2348 294.537Z" fill="#00B2CB" stroke="white" stroke-width="4"/>
</svg>
